<svg width="36" height="24" viewBox="0 0 36 24" fill="none" xmlns="http://www.w3.org/2000/svg">
<path d="M16.767 19.569C16.9046 19.7022 17.0887 19.8112 17.3035 19.8864C17.5183 19.9617 17.7573 20.001 18 20.001C18.2426 20.001 18.4816 19.9617 18.6964 19.8864C18.9112 19.8112 19.0954 19.7022 19.233 19.569L32.733 6.569C32.8892 6.41906 32.9809 6.24343 32.9979 6.06121C33.015 5.87898 32.9568 5.69712 32.8297 5.53539C32.7026 5.37366 32.5115 5.23825 32.277 5.14386C32.0426 5.04947 31.7738 4.99971 31.5 5H4.49997C4.22673 5.00075 3.95897 5.05115 3.72549 5.14576C3.492 5.24038 3.30162 5.37564 3.17482 5.53699C3.04802 5.69835 2.98959 5.8797 3.00583 6.06153C3.02207 6.24337 3.11235 6.41881 3.26697 6.569L16.767 19.569Z" fill="#CFB53C"/>
</svg>
