<svg width="206" height="412" viewBox="0 0 206 412" fill="none" xmlns="http://www.w3.org/2000/svg">
<path d="M171.753 406.125L171.716 406.125L171.678 406.125C168.038 406.138 164.442 405.334 161.153 403.774C157.868 402.216 154.973 399.942 152.682 397.119C152.679 397.117 152.677 397.114 152.674 397.111L10.8607 220.945L10.8447 220.925L10.8285 220.905C7.24505 216.545 5.28607 211.077 5.28607 205.434C5.28607 199.796 7.24129 194.333 10.8182 189.976C10.8216 189.972 10.825 189.967 10.8285 189.963L157.624 13.8085L157.628 13.8036C161.765 8.82692 167.709 5.69726 174.153 5.10313C180.597 4.50901 187.013 6.49908 191.99 10.6356C196.966 14.772 200.096 20.7161 200.69 27.1601C201.284 33.6026 199.295 40.0171 195.161 44.9933C195.16 44.9945 195.159 44.9957 195.158 44.9968L63.9083 202.379L61.2828 205.527L63.8553 208.719L190.705 366.107L190.731 366.138L190.757 366.169C193.736 369.746 195.628 374.1 196.21 378.718C196.792 383.336 196.039 388.025 194.04 392.228C192.041 396.431 188.879 399.974 184.93 402.437C180.98 404.9 176.408 406.18 171.753 406.125Z" fill="#CFB53C" stroke="#CFB53C" stroke-width="10"/>
</svg>
