<svg width="208" height="412" viewBox="0 0 208 412" fill="none" xmlns="http://www.w3.org/2000/svg">
<path d="M30.2294 406.956L30.0744 406.947L29.919 406.947C24.2269 406.958 18.7105 404.976 14.3274 401.344C11.8604 399.299 9.82113 396.787 8.32637 393.952C6.83162 391.118 5.91078 388.016 5.61657 384.825C5.32236 381.634 5.66057 378.416 6.61183 375.356C7.5628 372.297 9.10774 369.455 11.1582 366.994C11.1589 366.993 11.1595 366.992 11.1601 366.992L142.704 209.609L145.333 206.463L142.763 203.269L15.9129 45.5869L15.9057 45.5779L15.8985 45.569C13.8747 43.0769 12.3634 40.2094 11.4514 37.1313C10.5395 34.0533 10.2448 30.8253 10.5844 27.633C10.924 24.4407 11.8912 21.347 13.4303 18.5297C14.9694 15.7124 17.0502 13.227 19.553 11.2165L19.6403 11.1463L19.7245 11.0723C22.2453 8.85432 25.1973 7.18134 28.3953 6.15834C31.5933 5.13535 34.9682 4.78442 38.3083 5.12758C41.6484 5.47074 44.8814 6.50057 47.8046 8.15246C50.7278 9.80434 53.278 12.0426 55.2951 14.7268L55.3452 14.7934L55.3974 14.8583L197.223 191.039L197.239 191.059L197.255 191.079C200.839 195.438 202.798 200.906 202.798 206.55C202.798 212.187 200.842 217.65 197.266 222.008C197.262 222.012 197.259 222.016 197.255 222.02L50.4594 398.175L50.4511 398.185C48.007 401.133 44.9023 403.464 41.3888 404.988C37.8754 406.512 34.0522 407.186 30.2294 406.956Z" fill="#CFB53C" stroke="#CFB53C" stroke-width="10"/>
</svg>
