<svg width="886" height="379" viewBox="0 0 886 379" fill="none" xmlns="http://www.w3.org/2000/svg">
<g clip-path="url(#clip0)">
<path d="M12 147H31V95H65V78H31V42H78V25H12V147Z" fill="#CFB53C"/>
<path d="M143.476 25.25L160.476 25.25L130.976 147.25L113.976 147.25L143.476 25.25Z" fill="#CFB53C"/>
<path d="M173.115 147.3L189.976 147.25L160.615 25.3L143.615 25.3L173.115 147.3Z" fill="#CFB53C"/>
<rect x="135" y="127" width="17" height="34" transform="rotate(-90 135 127)" fill="#CFB53C"/>
<path d="M441 25H507V44H460V76H493V95H460V128H507V147H441V25Z" fill="#CFB53C"/>
<path d="M473 155H539V174H492V206H525V225H492V258H539V277H473V155Z" fill="#CFB53C"/>
<path d="M50.2803 155H30.7803V172H50.2803C59.2802 172 61.2802 179 61.2802 181.5V194C61.2802 197.5 58.2802 204 50.2803 204H30.7803V220.5H31.2803H50.2803C80.2802 220.5 80.2802 204 80.2802 194V180.5C80.2802 172 80.2802 155 50.2803 155Z" fill="#CFB53C"/>
<path fill-rule="evenodd" clip-rule="evenodd" d="M83.2802 235.5V248C83.2802 258 80.5 277 50.5 277H31.5H31H12V155H52C66.1052 156.115 72.4747 158.131 78 167C79.0956 169.609 79.517 171.267 80 174.5C80.3826 184.728 80.3747 190.419 80 200.5C79.2212 206.885 77.8837 209.633 74.377 213.5C82.1536 220.388 83.2802 230.291 83.2802 235.5ZM50.5 257.5H31V226H50.2803C59.2802 226 62.2802 233 62.2802 235.5V248C62.2802 251.5 58.5 257.5 50.5 257.5ZM50 204H31V172H52C54.5 172 60.5556 175.5 61 179.5C61.4444 183.5 61.5 192 61 196C60.5 200 56.626 203.421 50 204Z" fill="#CFB53C"/>
<path d="M649 51.9109V59.5C650.127 64.7484 651.31 67.3854 654.5 71.5C658.959 77.2097 662.297 80.2262 669.5 86L688.5 101.5C693.358 105.349 695.763 107.566 697.5 112C697.797 112.556 697.903 114.503 698 120.5C697.9 121.366 697.773 121.933 697.5 123C696.744 126.019 695.705 127.499 692 129.5C690.531 130.019 689.659 130.244 688 130.5C683.619 130.797 681.216 130.777 677 130.5C676.609 130.5 673.891 130 673.5 130C667.82 127.896 666.625 125.968 665.629 121.5C665.495 118.303 665.542 116.351 665.622 113.023L665.629 112.734H649C648.907 117.524 648.9 120.21 649 125C650.218 132.788 651.348 136.542 655 141C659.21 144.481 661.88 146.259 671 147H690C695.215 147.183 698.067 146.782 703 145C707.858 142.667 710.152 140.474 713 134C714.576 128.925 715.427 124.477 715 112C713.737 105.707 711.85 102.455 707 97C705.665 95.0851 701.182 91.8844 692 85.5C680.781 77.1475 675.303 72.4451 668 64C666.801 62.2177 666.405 61.2317 666.13 59.5V51.9109C666.13 43.8377 673.183 42.0436 675.702 42.0436H688.298C691.824 42.0436 698.374 44.7347 698.374 51.9109V59.5H715V51.9109C715 25 698.374 25 688.298 25H674.695C666.13 25 649 25.0001 649 51.9109Z" fill="#CFB53C"/>
<path d="M649 181.911V189.5C650.127 194.748 651.31 197.385 654.5 201.5C658.959 207.21 662.297 210.226 669.5 216L688.5 231.5C693.358 235.349 695.763 237.566 697.5 242C697.797 242.556 697.903 244.503 698 250.5C697.9 251.366 697.773 251.933 697.5 253C696.744 256.019 695.705 257.499 692 259.5C690.531 260.019 689.659 260.244 688 260.5C683.619 260.797 681.216 260.777 677 260.5C676.609 260.5 673.891 260 673.5 260C667.82 257.896 666.625 255.968 665.629 251.5C665.495 248.303 665.542 246.351 665.622 243.023L665.629 242.734H649C648.907 247.524 648.9 250.21 649 255C650.218 262.788 651.348 266.542 655 271C659.21 274.481 661.88 276.259 671 277H690C695.215 277.183 698.067 276.782 703 275C707.858 272.667 710.152 270.474 713 264C714.576 258.925 715.427 254.477 715 242C713.737 235.707 711.85 232.455 707 227C705.665 225.085 701.182 221.884 692 215.5C680.781 207.148 675.303 202.445 668 194C666.801 192.218 666.405 191.232 666.13 189.5V181.911C666.13 173.838 673.183 172.044 675.702 172.044H688.298C691.824 172.044 698.374 174.735 698.374 181.911V189.5H715V181.911C715 155 698.374 155 688.298 155H674.695C666.13 155 649 155 649 181.911Z" fill="#CFB53C"/>
<path d="M385.966 25L367.434 58.9706L348.901 25H330L367.434 95L405 25H385.966Z" fill="#CFB53C"/>
<rect x="330" y="25" width="19" height="122" fill="#CFB53C"/>
<rect x="386" y="25" width="19" height="122" fill="#CFB53C"/>
<rect x="377" y="155" width="19" height="122" fill="#CFB53C"/>
<rect x="434" y="155" width="19" height="122" fill="#CFB53C"/>
<rect x="377" y="226" width="19" height="76" transform="rotate(-90 377 226)" fill="#CFB53C"/>
<path fill-rule="evenodd" clip-rule="evenodd" d="M225 25L263.5 25C293.5 25 293.5 42 293.5 50.5V64C293.5 71.8221 293.5 83.6213 279.142 88.3898L293 147H275L262 90.5C233.855 90.5 244 90.5 244 90.5V147H225V25ZM263.5 74H244V42H263.5C272.5 42 274.5 49 274.5 51.5V64C274.5 67.5 271.5 74 263.5 74Z" fill="#CFB53C"/>
<path fill-rule="evenodd" clip-rule="evenodd" d="M102 155L140.5 155C170.5 155 170.5 172 170.5 180.5V194C170.5 201.822 170.5 213.621 156.142 218.39L170 277H152L139 220.5C110.855 220.5 121 220.5 121 220.5V277H102V155ZM140.5 204H121V172H140.5C149.5 172 151.5 179 151.5 181.5V194C151.5 197.5 148.5 204 140.5 204Z" fill="#CFB53C"/>
<path d="M194 185V228.5H211V185C211 176 218 174 220.5 174H235C238.5 174 244.5 177 244.5 185V228.5H261.5V204V185C261.5 155 245 155 235 155H219.5C211 155 194 155 194 185Z" fill="#CFB53C"/>
<path d="M261.5 247.28V227.78H244.5V247.28C244.5 256.28 237.5 258.28 235 258.28H220.5C217 258.28 211 255.28 211 247.28V227.78H194V228.28V247.28C194 277.28 210.5 277.28 220.5 277.28H236C244.5 277.28 261.5 277.28 261.5 247.28Z" fill="#CFB53C"/>
<path fill-rule="evenodd" clip-rule="evenodd" d="M544 25L582.5 25C612.5 25 612.5 42 612.5 50.5V64C612.5 71.8221 612.5 83.6213 598.142 88.3898L612 147H594L581 90.5C552.855 90.5 563 90.5 563 90.5V147H544V25ZM582.5 74H563V42H582.5C591.5 42 593.5 49 593.5 51.5V64C593.5 67.5 590.5 74 582.5 74Z" fill="#CFB53C"/>
<path fill-rule="evenodd" clip-rule="evenodd" d="M560 155L598.5 155C628.5 155 628.5 172 628.5 180.5V194C628.5 201.822 628.5 213.621 614.142 218.39L628 277H610L597 220.5C568.855 220.5 579 220.5 579 220.5V277H560V155ZM598.5 204H579V172H598.5C607.5 172 609.5 179 609.5 181.5V194C609.5 197.5 606.5 204 598.5 204Z" fill="#CFB53C"/>
<rect x="310" y="155" width="19" height="122" fill="#CFB53C"/>
<rect x="281" y="174" width="19" height="76" transform="rotate(-90 281 174)" fill="#CFB53C"/>
<path d="M28.0681 313.75H29.2931L28.7931 320.075H27.7931C27.4431 318.542 26.7597 317.333 25.7431 316.45C24.7431 315.567 23.5264 315.125 22.0931 315.125C21.1097 315.125 20.2347 315.325 19.4681 315.725C18.7014 316.108 18.0514 316.667 17.5181 317.4C17.0014 318.117 16.6014 319 16.3181 320.05C16.0514 321.083 15.9181 322.25 15.9181 323.55C15.9181 326.133 16.4431 328.125 17.4931 329.525C18.5597 330.908 20.1264 331.6 22.1931 331.6C23.8597 331.6 25.2347 331.15 26.3181 330.25C27.4181 329.35 28.2014 328.008 28.6681 326.225H29.7681V333H28.5931L28.2431 331.025C26.4097 332.508 24.1847 333.25 21.5681 333.25C20.0514 333.25 18.6764 333.025 17.4431 332.575C16.2097 332.125 15.1597 331.492 14.2931 330.675C13.4264 329.842 12.7514 328.833 12.2681 327.65C11.8014 326.467 11.5681 325.15 11.5681 323.7C11.5681 322.183 11.8181 320.8 12.3181 319.55C12.8181 318.3 13.5181 317.225 14.4181 316.325C15.3347 315.425 16.4181 314.733 17.6681 314.25C18.9347 313.75 20.3347 313.5 21.8681 313.5C22.8847 313.5 23.8347 313.642 24.7181 313.925C25.6014 314.208 26.5597 314.667 27.5931 315.3L28.0681 313.75ZM64.0241 313.5C65.5241 313.5 66.9241 313.758 68.2241 314.275C69.5241 314.792 70.6491 315.5 71.5991 316.4C72.5658 317.3 73.3241 318.358 73.8741 319.575C74.4241 320.792 74.6991 322.108 74.6991 323.525C74.6991 324.875 74.4158 326.142 73.8491 327.325C73.2991 328.508 72.5408 329.542 71.5741 330.425C70.6241 331.292 69.4991 331.983 68.1991 332.5C66.8991 333 65.5075 333.25 64.0241 333.25C62.5408 333.25 61.1491 333 59.8491 332.5C58.5491 331.983 57.4158 331.292 56.4491 330.425C55.4825 329.542 54.7241 328.508 54.1741 327.325C53.6241 326.142 53.3491 324.875 53.3491 323.525C53.3491 322.108 53.6241 320.792 54.1741 319.575C54.7241 318.358 55.4741 317.3 56.4241 316.4C57.3908 315.5 58.5241 314.792 59.8241 314.275C61.1241 313.758 62.5241 313.5 64.0241 313.5ZM64.0241 331.625C64.9908 331.625 65.8658 331.442 66.6491 331.075C67.4325 330.692 68.0991 330.158 68.6491 329.475C69.1991 328.775 69.6158 327.933 69.8991 326.95C70.1991 325.95 70.3491 324.833 70.3491 323.6C70.3491 322.3 70.1991 321.133 69.8991 320.1C69.6158 319.05 69.1991 318.158 68.6491 317.425C68.0991 316.675 67.4325 316.108 66.6491 315.725C65.8658 315.325 64.9908 315.125 64.0241 315.125C63.0408 315.125 62.1575 315.325 61.3741 315.725C60.6075 316.108 59.9491 316.675 59.3991 317.425C58.8491 318.158 58.4241 319.05 58.1241 320.1C57.8408 321.133 57.6991 322.3 57.6991 323.6C57.6991 324.833 57.8408 325.95 58.1241 326.95C58.4241 327.933 58.8491 328.775 59.3991 329.475C59.9491 330.158 60.6075 330.692 61.3741 331.075C62.1575 331.442 63.0408 331.625 64.0241 331.625ZM111.266 328.325L117.041 313.75H124.341V314.75C123.791 314.75 123.341 314.808 122.991 314.925C122.657 315.025 122.399 315.217 122.216 315.5C122.032 315.783 121.907 316.175 121.841 316.675C121.791 317.158 121.766 317.775 121.766 318.525V328.225C121.766 329.058 121.799 329.717 121.866 330.2C121.932 330.683 122.066 331.058 122.266 331.325C122.466 331.592 122.749 331.767 123.116 331.85C123.499 331.933 123.999 331.983 124.616 332V333H115.216V332C115.832 331.983 116.324 331.933 116.691 331.85C117.074 331.75 117.366 331.575 117.566 331.325C117.782 331.075 117.924 330.725 117.991 330.275C118.057 329.808 118.091 329.183 118.091 328.4V316.7H117.966L111.241 333.25H109.391L102.441 316.7H102.341V328.225C102.341 329.058 102.374 329.717 102.441 330.2C102.507 330.683 102.641 331.058 102.841 331.325C103.041 331.592 103.324 331.767 103.691 331.85C104.074 331.933 104.574 331.983 105.191 332V333H97.4907V332C98.1074 331.983 98.6074 331.933 98.9907 331.85C99.3741 331.75 99.6657 331.575 99.8657 331.325C100.082 331.075 100.224 330.725 100.291 330.275C100.357 329.808 100.391 329.183 100.391 328.4V318.35C100.391 317.65 100.357 317.067 100.291 316.6C100.224 316.133 100.099 315.767 99.9157 315.5C99.7324 315.217 99.4657 315.025 99.1157 314.925C98.7824 314.808 98.3324 314.75 97.7657 314.75V313.75H105.341L111.166 328.325H111.266ZM164.104 319.1C164.104 320.9 163.404 322.275 162.004 323.225C160.604 324.158 158.571 324.625 155.904 324.625H153.779V329.025C153.779 329.658 153.821 330.175 153.904 330.575C153.987 330.958 154.162 331.258 154.429 331.475C154.696 331.692 155.062 331.833 155.529 331.9C155.996 331.967 156.621 332 157.404 332V333H147.479V332C148.029 331.983 148.479 331.933 148.829 331.85C149.179 331.767 149.446 331.625 149.629 331.425C149.812 331.225 149.937 330.942 150.004 330.575C150.071 330.208 150.104 329.733 150.104 329.15V317.6C150.104 317.017 150.071 316.55 150.004 316.2C149.954 315.833 149.846 315.55 149.679 315.35C149.512 315.133 149.271 314.992 148.954 314.925C148.654 314.842 148.254 314.783 147.754 314.75V313.75H156.404C158.937 313.75 160.854 314.2 162.154 315.1C163.454 316 164.104 317.333 164.104 319.1ZM153.779 323.125H155.404C157.021 323.125 158.204 322.8 158.954 322.15C159.704 321.5 160.079 320.475 160.079 319.075C160.079 317.825 159.762 316.858 159.129 316.175C158.496 315.492 157.504 315.15 156.154 315.15H154.229C153.929 315.15 153.779 315.292 153.779 315.575V323.125ZM196.663 327.175H189.588C188.805 328.942 188.413 330.167 188.413 330.85C188.413 331.35 188.597 331.667 188.963 331.8C189.347 331.933 189.913 332 190.663 332V333H183.813V332C184.213 331.95 184.555 331.883 184.838 331.8C185.138 331.717 185.397 331.6 185.613 331.45C185.847 331.3 186.047 331.108 186.213 330.875C186.38 330.625 186.538 330.325 186.688 329.975L193.263 313.5H195.113L201.088 328.1C201.438 328.95 201.73 329.617 201.963 330.1C202.213 330.583 202.472 330.958 202.738 331.225C203.022 331.475 203.338 331.65 203.688 331.75C204.055 331.85 204.522 331.925 205.088 331.975V333H195.638V331.975C196.438 331.942 197.013 331.858 197.363 331.725C197.713 331.592 197.888 331.325 197.888 330.925C197.888 330.692 197.83 330.392 197.713 330.025C197.597 329.658 197.438 329.208 197.238 328.675L196.663 327.175ZM190.163 325.675H196.113L193.238 318.1H193.138L190.163 325.675ZM242.353 333.25L231.278 317.475H231.178V328.225C231.178 329.058 231.203 329.717 231.253 330.2C231.32 330.683 231.445 331.058 231.628 331.325C231.828 331.592 232.095 331.767 232.428 331.85C232.778 331.933 233.228 331.983 233.778 332V333H226.353V332C226.97 331.983 227.461 331.933 227.828 331.85C228.211 331.75 228.503 331.575 228.703 331.325C228.92 331.075 229.061 330.725 229.128 330.275C229.195 329.808 229.228 329.183 229.228 328.4V318.35C229.228 317.65 229.195 317.075 229.128 316.625C229.061 316.158 228.936 315.792 228.753 315.525C228.57 315.258 228.303 315.075 227.953 314.975C227.62 314.858 227.17 314.783 226.603 314.75V313.75H233.578L243.653 328.2H243.753V318.525C243.753 317.708 243.72 317.058 243.653 316.575C243.603 316.075 243.478 315.692 243.278 315.425C243.095 315.158 242.828 314.983 242.478 314.9C242.145 314.817 241.703 314.767 241.153 314.75V313.75H248.578V314.75C247.961 314.767 247.461 314.825 247.078 314.925C246.711 315.008 246.42 315.175 246.203 315.425C246.003 315.675 245.87 316.033 245.803 316.5C245.736 316.967 245.703 317.583 245.703 318.35V333.25H242.353ZM272.889 316.9C272.639 316.467 272.405 316.108 272.189 315.825C271.989 315.542 271.78 315.325 271.564 315.175C271.347 315.008 271.114 314.9 270.864 314.85C270.614 314.783 270.33 314.75 270.014 314.75V313.75H278.414V314.75C277.714 314.75 277.222 314.817 276.939 314.95C276.655 315.083 276.514 315.283 276.514 315.55C276.514 315.717 276.564 315.917 276.664 316.15C276.764 316.383 276.922 316.7 277.139 317.1L280.714 323.925H280.814L283.964 318.675C284.514 317.742 284.897 317.05 285.114 316.6C285.33 316.133 285.439 315.767 285.439 315.5C285.439 315.217 285.305 315.025 285.039 314.925C284.789 314.808 284.314 314.75 283.614 314.75V313.75H289.889V314.75C289.522 314.75 289.189 314.808 288.889 314.925C288.589 315.042 288.272 315.275 287.939 315.625C287.622 315.958 287.255 316.433 286.839 317.05C286.439 317.65 285.955 318.442 285.389 319.425L281.739 325.675V328.225C281.739 329.058 281.772 329.725 281.839 330.225C281.922 330.725 282.055 331.108 282.239 331.375C282.439 331.625 282.705 331.792 283.039 331.875C283.372 331.958 283.805 332 284.339 332V333H275.439V332C275.955 332 276.38 331.958 276.714 331.875C277.064 331.792 277.339 331.625 277.539 331.375C277.739 331.125 277.872 330.767 277.939 330.3C278.022 329.817 278.064 329.183 278.064 328.4V326.1L272.889 316.9Z" fill="#CFB53C"/>
<path d="M368.267 333H351.042V332C351.592 331.983 352.042 331.933 352.392 331.85C352.742 331.767 353.009 331.625 353.192 331.425C353.376 331.225 353.501 330.942 353.567 330.575C353.634 330.208 353.667 329.733 353.667 329.15V317.6C353.667 317.017 353.634 316.55 353.567 316.2C353.517 315.833 353.409 315.55 353.242 315.35C353.076 315.133 352.834 314.992 352.517 314.925C352.217 314.842 351.817 314.783 351.317 314.75V313.75H359.942V314.75C359.376 314.767 358.917 314.817 358.567 314.9C358.234 314.983 357.976 315.133 357.792 315.35C357.609 315.567 357.484 315.867 357.417 316.25C357.367 316.633 357.342 317.142 357.342 317.775V328.25C357.342 328.95 357.409 329.525 357.542 329.975C357.692 330.408 357.942 330.75 358.292 331C358.642 331.233 359.109 331.4 359.692 331.5C360.276 331.583 361.001 331.625 361.867 331.625C362.834 331.625 363.642 331.567 364.292 331.45C364.942 331.333 365.484 331.117 365.917 330.8C366.367 330.467 366.726 330.025 366.992 329.475C367.259 328.925 367.484 328.208 367.667 327.325H368.667L368.267 333ZM398.865 333H389.94V332C390.506 331.983 390.956 331.933 391.29 331.85C391.64 331.75 391.906 331.575 392.09 331.325C392.273 331.075 392.398 330.725 392.465 330.275C392.531 329.808 392.565 329.183 392.565 328.4V318.35C392.565 317.65 392.531 317.075 392.465 316.625C392.415 316.158 392.306 315.792 392.14 315.525C391.973 315.258 391.731 315.075 391.415 314.975C391.115 314.858 390.706 314.783 390.19 314.75V313.75H398.615V314.75C398.098 314.783 397.681 314.858 397.365 314.975C397.065 315.075 396.831 315.258 396.665 315.525C396.498 315.792 396.381 316.158 396.315 316.625C396.265 317.075 396.24 317.65 396.24 318.35V328.4C396.24 329.183 396.265 329.808 396.315 330.275C396.381 330.725 396.506 331.075 396.69 331.325C396.89 331.575 397.156 331.75 397.49 331.85C397.84 331.933 398.298 331.983 398.865 332V333ZM434.282 328.325L440.057 313.75H447.357V314.75C446.807 314.75 446.357 314.808 446.007 314.925C445.674 315.025 445.416 315.217 445.232 315.5C445.049 315.783 444.924 316.175 444.857 316.675C444.807 317.158 444.782 317.775 444.782 318.525V328.225C444.782 329.058 444.816 329.717 444.882 330.2C444.949 330.683 445.082 331.058 445.282 331.325C445.482 331.592 445.766 331.767 446.132 331.85C446.516 331.933 447.016 331.983 447.632 332V333H438.232V332C438.849 331.983 439.341 331.933 439.707 331.85C440.091 331.75 440.382 331.575 440.582 331.325C440.799 331.075 440.941 330.725 441.007 330.275C441.074 329.808 441.107 329.183 441.107 328.4V316.7H440.982L434.257 333.25H432.407L425.457 316.7H425.357V328.225C425.357 329.058 425.391 329.717 425.457 330.2C425.524 330.683 425.657 331.058 425.857 331.325C426.057 331.592 426.341 331.767 426.707 331.85C427.091 331.933 427.591 331.983 428.207 332V333H420.507V332C421.124 331.983 421.624 331.933 422.007 331.85C422.391 331.75 422.682 331.575 422.882 331.325C423.099 331.075 423.241 330.725 423.307 330.275C423.374 329.808 423.407 329.183 423.407 328.4V318.35C423.407 317.65 423.374 317.067 423.307 316.6C423.241 316.133 423.116 315.767 422.932 315.5C422.749 315.217 422.482 315.025 422.132 314.925C421.799 314.808 421.349 314.75 420.782 314.75V313.75H428.357L434.182 328.325H434.282ZM478.196 333H469.271V332C469.837 331.983 470.287 331.933 470.621 331.85C470.971 331.75 471.237 331.575 471.421 331.325C471.604 331.075 471.729 330.725 471.796 330.275C471.862 329.808 471.896 329.183 471.896 328.4V318.35C471.896 317.65 471.862 317.075 471.796 316.625C471.746 316.158 471.637 315.792 471.471 315.525C471.304 315.258 471.062 315.075 470.746 314.975C470.446 314.858 470.037 314.783 469.521 314.75V313.75H477.946V314.75C477.429 314.783 477.012 314.858 476.696 314.975C476.396 315.075 476.162 315.258 475.996 315.525C475.829 315.792 475.712 316.158 475.646 316.625C475.596 317.075 475.571 317.65 475.571 318.35V328.4C475.571 329.183 475.596 329.808 475.646 330.275C475.712 330.725 475.837 331.075 476.021 331.325C476.221 331.575 476.487 331.75 476.821 331.85C477.171 331.933 477.629 331.983 478.196 332V333ZM519.463 319.25H518.388C518.338 318.433 518.213 317.758 518.013 317.225C517.83 316.675 517.563 316.242 517.213 315.925C516.863 315.592 516.438 315.367 515.938 315.25C515.438 315.117 514.855 315.05 514.188 315.05C513.538 315.05 513.013 315.067 512.613 315.1C512.23 315.117 511.93 315.158 511.713 315.225C511.513 315.275 511.38 315.35 511.313 315.45C511.247 315.55 511.213 315.675 511.213 315.825V328.925C511.213 329.458 511.247 329.917 511.313 330.3C511.397 330.683 511.555 331 511.788 331.25C512.022 331.483 512.363 331.667 512.813 331.8C513.263 331.917 513.855 331.983 514.588 332V333H504.113V332C504.863 331.983 505.463 331.917 505.913 331.8C506.363 331.667 506.705 331.483 506.938 331.25C507.188 331 507.347 330.683 507.413 330.3C507.497 329.917 507.538 329.458 507.538 328.925V315.825C507.538 315.675 507.505 315.55 507.438 315.45C507.388 315.35 507.272 315.275 507.088 315.225C506.905 315.158 506.638 315.117 506.288 315.1C505.955 315.067 505.513 315.05 504.963 315.05C504.363 315.05 503.788 315.083 503.238 315.15C502.688 315.2 502.205 315.367 501.788 315.65C501.372 315.917 501.03 316.333 500.763 316.9C500.513 317.45 500.38 318.233 500.363 319.25H499.388L499.638 313.75H519.213L519.463 319.25ZM546.942 322.35C548.009 322.35 548.867 322.317 549.517 322.25C550.167 322.183 550.667 322.05 551.017 321.85C551.384 321.633 551.642 321.325 551.792 320.925C551.942 320.525 552.059 319.983 552.142 319.3H553.067V326.625H552.142C552.042 325.958 551.909 325.425 551.742 325.025C551.575 324.625 551.309 324.325 550.942 324.125C550.575 323.908 550.075 323.775 549.442 323.725C548.825 323.658 547.992 323.625 546.942 323.625V328.775C546.942 329.308 547.009 329.758 547.142 330.125C547.292 330.492 547.534 330.792 547.867 331.025C548.2 331.242 548.642 331.4 549.192 331.5C549.742 331.583 550.417 331.625 551.217 331.625C552.167 331.625 552.967 331.558 553.617 331.425C554.284 331.292 554.834 331.058 555.267 330.725C555.7 330.392 556.05 329.95 556.317 329.4C556.584 328.833 556.809 328.125 556.992 327.275H557.992L557.592 333H540.642V332C541.192 331.983 541.642 331.933 541.992 331.85C542.342 331.767 542.609 331.625 542.792 331.425C542.975 331.225 543.1 330.942 543.167 330.575C543.234 330.208 543.267 329.733 543.267 329.15V317.6C543.267 317.017 543.234 316.55 543.167 316.2C543.117 315.833 543.009 315.55 542.842 315.35C542.675 315.133 542.434 314.992 542.117 314.925C541.817 314.842 541.417 314.783 540.917 314.75V313.75H556.717L556.892 318.65H555.817C555.717 317.95 555.559 317.375 555.342 316.925C555.125 316.458 554.825 316.092 554.442 315.825C554.059 315.542 553.559 315.35 552.942 315.25C552.342 315.133 551.6 315.075 550.717 315.075H547.892C547.459 315.075 547.192 315.133 547.092 315.25C546.992 315.35 546.942 315.6 546.942 316V322.35ZM579.734 333V332C580.284 331.983 580.726 331.942 581.059 331.875C581.409 331.792 581.676 331.65 581.859 331.45C582.059 331.233 582.192 330.95 582.259 330.6C582.326 330.233 582.359 329.75 582.359 329.15V317.6C582.359 317.017 582.334 316.55 582.284 316.2C582.234 315.833 582.126 315.55 581.959 315.35C581.792 315.133 581.559 314.992 581.259 314.925C580.976 314.842 580.601 314.783 580.134 314.75V313.75H589.634C591.234 313.75 592.709 314 594.059 314.5C595.409 315 596.576 315.692 597.559 316.575C598.542 317.458 599.309 318.508 599.859 319.725C600.409 320.942 600.684 322.267 600.684 323.7C600.684 325.067 600.426 326.325 599.909 327.475C599.392 328.608 598.667 329.583 597.734 330.4C596.817 331.217 595.709 331.858 594.409 332.325C593.126 332.775 591.709 333 590.159 333H579.734ZM586.459 315.275C586.176 315.275 586.034 315.417 586.034 315.7V328.625C586.034 329.592 586.334 330.308 586.934 330.775C587.534 331.242 588.459 331.475 589.709 331.475C591.892 331.475 593.567 330.817 594.734 329.5C595.917 328.183 596.509 326.267 596.509 323.75C596.509 322.417 596.351 321.225 596.034 320.175C595.717 319.125 595.259 318.242 594.659 317.525C594.059 316.792 593.326 316.233 592.459 315.85C591.609 315.467 590.651 315.275 589.584 315.275H586.459Z" fill="#CFB53C"/>
<path d="M871.566 3.77573C872.207 3.58298 872.851 4.06357 872.851 4.73281L872.851 27.1392C872.851 27.5844 872.567 27.9724 872.14 28.1001C847.582 35.4555 809.836 59.4005 808.351 60.3909C806.851 61.3909 802.552 57.8909 801.351 52.8909C800.991 51.3909 798.851 43.5665 801.351 41.3909C827.826 18.3478 849.958 10.2745 871.566 3.77573Z" fill="#CFB53C"/>
<path d="M871.566 60.7757C872.207 60.583 872.851 61.0636 872.851 61.7328L872.851 84.1392C872.851 84.5844 872.567 84.9724 872.14 85.1001C847.582 92.4555 809.836 116.4 808.351 117.391C806.851 118.391 802.552 114.891 801.351 109.891C800.991 108.391 798.851 100.567 801.351 98.3909C827.826 75.3478 849.958 67.2745 871.566 60.7757Z" fill="#CFB53C"/>
<path d="M871.566 116.776C872.207 116.583 872.851 117.064 872.851 117.733L872.851 140.139C872.851 140.584 872.567 140.972 872.14 141.1C847.582 148.456 809.836 172.4 808.351 173.391C806.851 174.391 802.552 170.891 801.351 165.891C800.991 164.391 798.851 156.567 801.351 154.391C827.826 131.348 849.958 123.275 871.566 116.776Z" fill="#CFB53C"/>
<path d="M871.566 172.776C872.207 172.583 872.851 173.064 872.851 173.733L872.851 196.139C872.851 196.584 872.567 196.972 872.14 197.1C847.582 204.456 809.836 228.4 808.351 229.391C806.851 230.391 802.552 226.891 801.351 221.891C800.991 220.391 798.851 212.567 801.351 210.391C827.826 187.348 849.958 179.275 871.566 172.776Z" fill="#CFB53C"/>
<path d="M871.566 230.776C872.207 230.583 872.851 231.064 872.851 231.733L872.851 254.139C872.851 254.584 872.567 254.972 872.14 255.1C847.582 262.456 809.836 286.4 808.351 287.391C806.851 288.391 802.552 284.891 801.351 279.891C800.991 278.391 798.851 270.567 801.351 268.391C827.826 245.348 849.958 237.275 871.566 230.776Z" fill="#CFB53C"/>
<path d="M871.566 286.776C872.207 286.583 872.851 287.064 872.851 287.733L872.851 310.139C872.851 310.584 872.567 310.972 872.14 311.1C847.582 318.456 809.836 342.4 808.351 343.391C806.851 344.391 802.552 340.891 801.351 335.891C800.991 334.391 798.851 326.567 801.351 324.391C827.826 301.348 849.958 293.275 871.566 286.776Z" fill="#CFB53C"/>
<path d="M744.492 314.776C743.851 314.583 743.207 315.064 743.207 315.733L743.207 338.139C743.207 338.584 743.491 338.972 743.917 339.1C768.476 346.456 806.221 370.4 807.707 371.391C809.207 372.391 813.506 368.891 814.707 363.891C815.067 362.391 817.207 354.567 814.707 352.391C788.232 329.348 766.1 321.275 744.492 314.776Z" fill="#CFB53C"/>
<path d="M744.492 257.776C743.851 257.583 743.207 258.064 743.207 258.733L743.207 281.139C743.207 281.584 743.491 281.972 743.917 282.1C768.476 289.456 806.221 313.4 807.707 314.391C809.207 315.391 813.506 311.891 814.707 306.891C815.067 305.391 817.207 297.567 814.707 295.391C788.232 272.348 766.1 264.275 744.492 257.776Z" fill="#CFB53C"/>
<path d="M744.492 199.776C743.851 199.583 743.207 200.064 743.207 200.733L743.207 223.139C743.207 223.584 743.491 223.972 743.917 224.1C768.476 231.456 806.221 255.4 807.707 256.391C809.207 257.391 813.506 253.891 814.707 248.891C815.067 247.391 817.207 239.567 814.707 237.391C788.232 214.348 766.1 206.275 744.492 199.776Z" fill="#CFB53C"/>
<path d="M744.492 143.776C743.851 143.583 743.207 144.064 743.207 144.733L743.207 167.139C743.207 167.584 743.491 167.972 743.917 168.1C768.476 175.456 806.221 199.4 807.707 200.391C809.207 201.391 813.506 197.891 814.707 192.891C815.067 191.391 817.207 183.567 814.707 181.391C788.232 158.348 766.1 150.275 744.492 143.776Z" fill="#CFB53C"/>
<path d="M744.492 87.7757C743.851 87.583 743.207 88.0636 743.207 88.7328L743.207 111.139C743.207 111.584 743.491 111.972 743.917 112.1C768.476 119.456 806.221 143.4 807.707 144.391C809.207 145.391 813.506 141.891 814.707 136.891C815.067 135.391 817.207 127.567 814.707 125.391C788.232 102.348 766.1 94.2745 744.492 87.7757Z" fill="#CFB53C"/>
<path d="M744.492 30.7757C743.851 30.583 743.207 31.0636 743.207 31.7328L743.207 54.1392C743.207 54.5844 743.491 54.9724 743.917 55.1001C768.476 62.4555 806.221 86.4005 807.707 87.3909C809.207 88.3909 813.506 84.8909 814.707 79.8909C815.067 78.3909 817.207 70.5665 814.707 68.3909C788.232 45.3478 766.1 37.2745 744.492 30.7757Z" fill="#CFB53C"/>
</g>
<defs>
<clipPath id="clip0">
<rect width="886" height="379" fill="white"/>
</clipPath>
</defs>
</svg>
