<svg width="322" height="322" viewBox="0 0 322 322" fill="none" xmlns="http://www.w3.org/2000/svg">
<path d="M204.282 157.464L200.747 161L204.282 164.535L290.294 250.548C297.183 257.436 297.183 268.605 290.294 275.493L275.493 290.294C268.605 297.183 257.436 297.183 250.548 290.294L164.536 204.282L161 200.747L157.464 204.282L71.4521 290.294C64.5636 297.183 53.3954 297.183 46.5068 290.294L31.7055 275.493C24.817 268.605 24.817 257.436 31.7055 250.548L117.718 164.535L121.253 161L117.718 157.464L31.7055 71.4521C24.817 64.5635 24.817 53.3953 31.7055 46.5068L46.5068 31.7055C53.3954 24.8169 64.5636 24.8169 71.4521 31.7055L157.464 117.718L161 121.253L164.536 117.718L250.548 31.7055C257.436 24.8169 268.605 24.8169 275.493 31.7055L290.294 46.5068C297.183 53.3953 297.183 64.5635 290.294 71.4521L204.282 157.464Z" stroke="#CFB53C" stroke-width="10"/>
</svg>
