<svg width="199" height="199" viewBox="0 0 199 199" fill="none" xmlns="http://www.w3.org/2000/svg">
<path d="M179.794 33H19.3688C15.8231 33 12.4227 34.4085 9.91562 36.9156C7.40849 39.4227 6 42.8231 6 46.3687V153.319C6 156.864 7.40849 160.265 9.91562 162.772C12.4227 165.279 15.8231 166.688 19.3688 166.688H179.794C183.339 166.688 186.74 165.279 189.247 162.772C191.754 160.265 193.163 156.864 193.163 153.319V46.3687C193.163 42.8231 191.754 39.4227 189.247 36.9156C186.74 34.4085 183.339 33 179.794 33ZM19.3688 153.319V52.4515L95.7712 105.325C96.8901 106.101 98.2194 106.517 99.5813 106.517C100.943 106.517 102.272 106.101 103.391 105.325L179.794 52.4515V153.319H19.3688Z" fill="#CFB53C"/>
</svg>
