<svg width="240" height="240" viewBox="0 0 240 240" fill="none" xmlns="http://www.w3.org/2000/svg">
<path d="M107.227 150.827C114.361 153.797 122.303 154.197 129.699 151.961C137.095 149.725 143.485 144.99 147.778 138.566C152.071 132.142 154 124.426 153.237 116.737C152.473 109.049 149.064 101.863 143.591 96.4091C140.102 92.9225 135.884 90.2528 131.239 88.5922C126.595 86.9316 121.64 86.3215 116.732 86.8056C111.823 87.2897 107.083 88.8562 102.853 91.3921C98.6223 93.928 95.0068 97.3704 92.2664 101.471C89.526 105.572 87.729 110.23 87.0047 115.109C86.2804 119.988 86.6468 124.966 88.0776 129.687C89.5084 134.407 91.968 138.751 95.2793 142.407C98.5905 146.062 102.671 148.938 107.227 150.827Z" fill="#CEB53C"/>
<path fill-rule="evenodd" clip-rule="evenodd" d="M78.7727 20.6C89.4364 20.1091 92.8364 20 120 20C147.164 20 150.564 20.1182 161.218 20.6C171.873 21.0818 179.145 22.7818 185.509 25.2455C192.173 27.7636 198.218 31.7 203.218 36.7909C208.309 41.7818 212.236 47.8182 214.745 54.4909C217.218 60.8545 218.909 68.1273 219.4 78.7636C219.891 89.4455 220 92.8455 220 120C220 147.164 219.882 150.564 219.4 161.227C218.918 171.864 217.218 179.136 214.745 185.5C212.236 192.174 208.303 198.22 203.218 203.218C198.218 208.309 192.173 212.236 185.509 214.745C179.145 217.218 171.873 218.909 161.236 219.4C150.564 219.891 147.164 220 120 220C92.8364 220 89.4364 219.882 78.7727 219.4C68.1364 218.918 60.8636 217.218 54.5 214.745C47.8266 212.236 41.7802 208.302 36.7818 203.218C31.6944 198.224 27.7574 192.181 25.2455 185.509C22.7818 179.145 21.0909 171.873 20.6 161.236C20.1091 150.555 20 147.155 20 120C20 92.8364 20.1182 89.4364 20.6 78.7818C21.0818 68.1273 22.7818 60.8545 25.2455 54.4909C27.7611 47.8189 31.7011 41.7756 36.7909 36.7818C41.7822 31.6955 47.8225 27.7586 54.4909 25.2455C60.8545 22.7818 68.1273 21.0909 78.7636 20.6H78.7727ZM100.33 72.5124C94.0938 75.0955 88.4275 78.8816 83.6545 83.6545C74.0151 93.294 68.5998 106.368 68.5998 120C68.5998 133.632 74.0151 146.706 83.6545 156.345C93.294 165.985 106.368 171.4 120 171.4C133.632 171.4 146.706 165.985 156.345 156.345C161.118 151.572 164.905 145.906 167.488 139.67C170.071 133.434 171.4 126.75 171.4 120C171.4 113.25 170.071 106.566 167.488 100.33C164.905 94.0938 161.118 88.4275 156.345 83.6545C151.573 78.8816 145.906 75.0955 139.67 72.5124C133.434 69.9293 126.75 68.5998 120 68.5998C113.25 68.5998 106.566 69.9293 100.33 72.5124ZM185.585 72.3088C184.93 73.7971 183.983 75.1388 182.8 76.2545C180.5 78.4245 177.444 79.6124 174.282 79.5664C171.121 79.5203 168.101 78.2437 165.865 76.0077C163.629 73.7716 162.352 70.7522 162.306 67.5903C162.26 64.4284 163.448 61.373 165.618 59.0727C166.734 57.89 168.076 56.9431 169.564 56.2881C171.052 55.6332 172.657 55.2835 174.282 55.2598C175.908 55.2361 177.522 55.5389 179.029 56.1502C180.536 56.7614 181.904 57.6688 183.054 58.8185C184.204 59.9683 185.111 61.337 185.723 62.8437C186.334 64.3504 186.637 65.9645 186.613 67.5903C186.589 69.2161 186.24 70.8206 185.585 72.3088Z" fill="#CEB53C"/>
<path fill-rule="evenodd" clip-rule="evenodd" d="M129.699 151.961C122.303 154.197 114.361 153.797 107.227 150.827C102.671 148.938 98.5905 146.062 95.2793 142.407C91.968 138.751 89.5084 134.407 88.0776 129.687C86.6468 124.966 86.2804 119.988 87.0047 115.109C87.729 110.23 89.526 105.572 92.2664 101.471C95.0068 97.3704 98.6223 93.928 102.853 91.3921C107.083 88.8562 111.823 87.2897 116.732 86.8056C121.64 86.3215 126.595 86.9316 131.239 88.5922C135.884 90.2528 140.102 92.9225 143.591 96.4091C149.064 101.863 152.473 109.049 153.237 116.737C154 124.426 152.071 132.142 147.778 138.566C143.485 144.99 137.095 149.725 129.699 151.961Z" fill="#CEB53C"/>
</svg>
