<svg width="240" height="240" viewBox="0 0 240 240" fill="none" xmlns="http://www.w3.org/2000/svg">
<path d="M210.695 51.671L184.29 25.0744C181.067 21.8248 176.753 20 172.191 20C167.629 20 163.315 21.7998 160.092 25.0744L131.653 53.6958C128.43 56.9454 126.62 61.3198 126.62 65.9193C126.62 70.5437 128.405 74.8681 131.653 78.1427L153.868 100.565C148.808 112.453 141.536 123.255 132.447 132.386C123.348 141.61 112.711 148.884 100.909 154.033L78.6945 131.611C75.4713 128.361 71.1572 126.537 66.5952 126.537C64.3451 126.528 62.1159 126.973 60.0382 127.844C57.9606 128.715 56.0764 129.996 54.496 131.611L26.0331 160.232C22.8099 163.482 21 167.857 21 172.456C21 177.08 22.7851 181.405 26.0331 184.679L52.4134 211.276C57.9175 216.825 65.5043 220 73.2895 220C74.9011 220 76.4631 219.875 78.0498 219.6C110.876 214.151 143.455 196.528 169.761 170.031C196.042 143.485 213.497 110.639 218.951 77.5178C220.513 68.119 217.389 58.4452 210.695 51.671V51.671ZM201.373 74.5432C196.538 104.015 180.819 133.411 157.141 157.283C133.463 181.155 104.331 197.003 75.0994 201.877C71.43 202.502 67.6614 201.252 64.9837 198.578L39.0745 172.456L66.5457 144.734L96.2483 174.731L96.4714 174.956L101.827 172.956C118.065 166.937 132.81 157.43 145.042 145.094C157.273 132.758 166.697 117.888 172.662 101.515L174.645 96.1155L144.695 65.9443L172.166 38.2227L198.075 64.3445C200.753 67.0441 201.993 70.8437 201.373 74.5432Z" fill="#CFB53C"/>
</svg>
