<svg width="240" height="240" viewBox="0 0 240 240" fill="none" xmlns="http://www.w3.org/2000/svg">
<path d="M196.21 55.0875L171.125 29.8206C168.063 26.7335 163.965 25 159.631 25C155.297 25 151.199 26.7098 148.137 29.8206L121.121 57.011C118.059 60.0981 116.339 64.2538 116.339 68.6233C116.339 73.0165 118.035 77.1247 121.121 80.2356L142.225 101.537C137.417 112.83 130.509 123.092 121.874 131.767C113.23 140.529 103.126 147.44 91.914 152.332L70.8097 131.031C67.7477 127.943 63.6494 126.21 59.3155 126.21C57.1778 126.202 55.0601 126.624 53.0863 127.452C51.1126 128.28 49.3226 129.496 47.8212 131.031L20.7814 158.221C17.7194 161.308 16 165.464 16 169.833C16 174.226 17.6959 178.335 20.7814 181.445L45.8427 206.712C51.0716 211.984 58.2791 215 65.675 215C67.206 215 68.6899 214.881 70.1973 214.62C101.383 209.443 132.332 192.702 157.323 167.53C182.29 142.31 198.872 111.107 204.054 79.6419C205.538 70.713 202.57 61.5229 196.21 55.0875V55.0875ZM187.354 76.816C182.761 104.814 167.828 132.74 145.334 155.419C122.84 178.097 95.1644 193.153 67.3944 197.783C63.9085 198.377 60.3283 197.19 57.7845 194.649L33.1707 169.833L59.2684 143.498L87.4858 171.994L87.6978 172.208L92.7855 170.308C108.212 164.59 122.22 155.558 133.84 143.839C145.459 132.12 154.413 117.994 160.079 102.439L161.963 97.3097L133.51 68.647L159.608 42.3116L184.221 67.1272C186.765 69.6919 187.943 73.3015 187.354 76.816Z" fill="#CFB53C"/>
</svg>
