<svg width="240" height="240" viewBox="0 0 240 240" fill="none" xmlns="http://www.w3.org/2000/svg">
<path d="M171.125 29.8206L196.21 55.0875C202.57 61.5229 205.538 70.713 204.054 79.6419C198.872 111.107 182.29 142.31 157.323 167.53C132.332 192.702 101.383 209.443 70.1973 214.62C68.6899 214.881 67.206 215 65.675 215C58.2791 215 51.0716 211.984 45.8427 206.712L20.7814 181.445C17.6959 178.335 16 174.226 16 169.833C16 165.464 17.7194 161.308 20.7814 158.221L47.8212 131.031C49.3226 129.496 51.1126 128.28 53.0863 127.452C55.0601 126.624 57.1778 126.202 59.3155 126.21C63.6494 126.21 67.7477 127.943 70.8097 131.031L91.914 152.332C103.126 147.44 113.23 140.529 121.874 131.767C130.509 123.092 137.417 112.83 142.225 101.537L121.121 80.2356C118.035 77.1247 116.339 73.0165 116.339 68.6233C116.339 64.2538 118.059 60.0981 121.121 57.011L148.137 29.8206C151.199 26.7098 155.297 25 159.631 25C163.965 25 168.063 26.7335 171.125 29.8206Z" fill="#CFB53C"/>
</svg>
