<svg width="240" height="240" viewBox="0 0 240 240" fill="none" xmlns="http://www.w3.org/2000/svg">
<path d="M184.29 25.0744L210.695 51.671C217.389 58.4452 220.513 68.119 218.951 77.5178C213.497 110.639 196.042 143.485 169.761 170.031C143.455 196.528 110.876 214.151 78.0498 219.6C76.4631 219.875 74.9011 220 73.2895 220C65.5043 220 57.9175 216.825 52.4134 211.276L26.0331 184.679C22.7851 181.405 21 177.08 21 172.456C21 167.857 22.8099 163.482 26.0331 160.232L54.496 131.611C56.0764 129.996 57.9606 128.715 60.0382 127.844C62.1159 126.973 64.3451 126.528 66.5952 126.537C71.1572 126.537 75.4713 128.361 78.6945 131.611L100.909 154.033C112.711 148.884 123.348 141.61 132.447 132.386C141.536 123.255 148.808 112.453 153.868 100.565L131.653 78.1427C128.405 74.8681 126.62 70.5437 126.62 65.9193C126.62 61.3198 128.43 56.9454 131.653 53.6958L160.092 25.0744C163.315 21.7998 167.629 20 172.191 20C176.753 20 181.067 21.8248 184.29 25.0744Z" fill="#CFB53C"/>
</svg>
